<svg width="128" height="129" viewBox="0 0 128 129" fill="none" xmlns="http://www.w3.org/2000/svg">
<circle opacity="0.116961" cx="64" cy="64.25" r="64" fill="url(#paint0_linear_520_43)"/>
<circle opacity="0.37147" cx="63.5" cy="66.75" r="57.5" fill="url(#paint1_linear_520_43)"/>
<circle opacity="0.121196" cx="63.5" cy="66.75" r="57.5" fill="url(#paint2_linear_520_43)"/>
<circle cx="64" cy="66.25" r="50" fill="url(#paint3_linear_520_43)"/>
<path d="M59.8223 67.1743C59.8223 68.7953 61.0756 70.0987 62.613 70.0987H65.7545C67.0914 70.0987 68.1776 68.9624 68.1776 67.542C68.1776 66.0213 67.5092 65.4699 66.5233 65.1189L61.4933 63.3643C60.5074 63.0134 59.839 62.4786 59.839 60.9413C59.839 59.5376 60.9252 58.3845 62.262 58.3845H65.4036C66.941 58.3845 68.1943 59.688 68.1943 61.3089" stroke="white" stroke-width="2" stroke-linecap="round" stroke-linejoin="round"/>
<path d="M64 56.7302V71.7699" stroke="white" stroke-width="2" stroke-linecap="round" stroke-linejoin="round"/>
<path d="M80.711 64.25C80.711 73.4743 73.2246 80.9607 64.0003 80.9607C54.776 80.9607 47.2896 73.4743 47.2896 64.25C47.2896 55.0257 54.776 47.5393 64.0003 47.5393" stroke="white" stroke-width="2" stroke-linecap="round" stroke-linejoin="round"/>
<path d="M72.3555 49.2104V55.8947H79.0398" stroke="white" stroke-width="2" stroke-linecap="round" stroke-linejoin="round"/>
<path d="M80.7108 47.5393L72.3555 55.8947" stroke="white" stroke-width="2" stroke-linecap="round" stroke-linejoin="round"/>
<defs>
<linearGradient id="paint0_linear_520_43" x1="152.561" y1="147.891" x2="0" y2="147.891" gradientUnits="userSpaceOnUse">
<stop stop-color="#08857C"/>
<stop offset="1" stop-color="#BAD339"/>
</linearGradient>
<linearGradient id="paint1_linear_520_43" x1="143.066" y1="141.896" x2="6" y2="141.896" gradientUnits="userSpaceOnUse">
<stop stop-color="#08857C"/>
<stop offset="1" stop-color="#BAD339"/>
</linearGradient>
<linearGradient id="paint2_linear_520_43" x1="143.066" y1="141.896" x2="6" y2="141.896" gradientUnits="userSpaceOnUse">
<stop stop-color="#08857C"/>
<stop offset="1" stop-color="#BAD339"/>
</linearGradient>
<linearGradient id="paint3_linear_520_43" x1="133.188" y1="131.595" x2="14" y2="131.595" gradientUnits="userSpaceOnUse">
<stop stop-color="#08857C"/>
<stop offset="1" stop-color="#BAD339"/>
</linearGradient>
</defs>
</svg>
