<svg width="22" height="22" viewBox="0 0 22 22" fill="none" xmlns="http://www.w3.org/2000/svg">
<path d="M9.06584 10.1303H6.35422C5.70957 10.1303 5.18773 10.6521 5.18773 11.2967V16.5358H9.06584V10.1303Z" stroke="#D9D9D9" stroke-width="1.5" stroke-linecap="round" stroke-linejoin="round"/>
<path d="M11.7788 5.47439H10.2234C9.57876 5.47439 9.05691 5.99627 9.05691 6.64092V16.5256H12.9351V6.64092C12.9351 5.99627 12.4234 5.47439 11.7788 5.47439Z" stroke="#D9D9D9" stroke-width="1.5" stroke-linecap="round" stroke-linejoin="round"/>
<path d="M15.6537 11.8697H12.9421V16.5256H16.8202V13.0363C16.81 12.3916 16.2881 11.8697 15.6537 11.8697Z" stroke="#D9D9D9" stroke-width="1.5" stroke-linecap="round" stroke-linejoin="round"/>
<path d="M7.93023 21.2326H14.0698C19.186 21.2326 21.2326 19.186 21.2326 14.0698V7.93023C21.2326 2.81395 19.186 0.767442 14.0698 0.767442H7.93023C2.81395 0.767442 0.767442 2.81395 0.767442 7.93023V14.0698C0.767442 19.186 2.81395 21.2326 7.93023 21.2326Z" stroke="#D9D9D9" stroke-width="1.5" stroke-linecap="round" stroke-linejoin="round"/>
</svg>
