<svg width="20" height="18" viewBox="0 0 20 18" fill="none" xmlns="http://www.w3.org/2000/svg">
<path d="M19.1829 8.49519L11.1059 0.418201C10.8381 0.150432 10.4749 -1.19702e-08 10.0962 0C9.71755 1.19702e-08 9.35438 0.150432 9.08661 0.418201C8.81884 0.68597 8.66841 1.04914 8.66841 1.42782C8.66841 1.80651 8.81884 2.16968 9.08661 2.43745L14.1347 7.48556H1.00962C0.212021 7.48556 0 8.70721 0 9.50481C0 10.3024 0.212021 10.5144 1.00962 10.5144H14.1347L9.08661 15.5626C8.81884 15.8303 8.66841 16.1935 8.66841 16.5722C8.66841 16.9509 8.81884 17.314 9.08661 17.5818C9.35438 17.8496 9.71755 18 10.0962 18C10.4749 18 10.8381 17.8496 11.1059 17.5818L19.1829 10.5144C19.3172 10.3828 19.4239 10.2257 19.4967 10.0524C19.5696 9.87901 19.6071 9.69286 19.6071 9.50481C19.6071 9.31676 19.5696 9.13061 19.4967 8.95725C19.4239 8.78389 19.3172 8.62679 19.1829 8.49519Z" fill="#08857C"/>
</svg>
