<svg width="22" height="22" viewBox="0 0 22 22" fill="none" xmlns="http://www.w3.org/2000/svg">
<path d="M7.59448 13.384C7.59448 14.704 8.6075 15.7682 9.8661 15.7682H12.4345C13.5294 15.7682 14.4196 14.837 14.4196 13.691C14.4196 12.4426 13.8773 12.0026 13.0689 11.7161L8.94517 10.2836C8.1368 9.99705 7.59448 9.55705 7.59448 8.30868C7.59448 7.16263 8.48471 6.23147 9.57959 6.23147H12.148C13.4066 6.23147 14.4196 7.29565 14.4196 8.61565" stroke="#D9D9D9" stroke-width="1.5" stroke-linecap="round" stroke-linejoin="round"/>
<path d="M11 4.86047V17.1395" stroke="#D9D9D9" stroke-width="1.5" stroke-linecap="round" stroke-linejoin="round"/>
<path d="M14.0698 21.2326H7.93023C2.81395 21.2326 0.767442 19.186 0.767442 14.0698V7.93023C0.767442 2.81395 2.81395 0.767442 7.93023 0.767442H14.0698C19.186 0.767442 21.2326 2.81395 21.2326 7.93023V14.0698C21.2326 19.186 19.186 21.2326 14.0698 21.2326Z" stroke="#D9D9D9" stroke-width="1.5" stroke-linecap="round" stroke-linejoin="round"/>
</svg>
