<svg width="24" height="24" viewBox="0 0 24 24" fill="none" xmlns="http://www.w3.org/2000/svg">
<path d="M17 21V19C17 17.9391 16.5786 16.9217 15.8284 16.1716C15.0783 15.4214 14.0609 15 13 15H5C3.93913 15 2.92172 15.4214 2.17157 16.1716C1.42143 16.9217 1 17.9391 1 19V21" stroke="currentColor" stroke-width="2" stroke-linecap="round" stroke-linejoin="round"/>
<circle cx="9" cy="7" r="4" stroke="currentColor" stroke-width="2"/>
<path d="M23 21V19C23 18.1645 22.7155 17.3541 22.2094 16.6988C21.7033 16.0434 20.9999 15.5769 20.2 15.3746" stroke="currentColor" stroke-width="2" stroke-linecap="round" stroke-linejoin="round"/>
<path d="M16 3.37439C16.8003 3.57653 17.5042 4.04303 18.0106 4.69842C18.5171 5.3538 18.8018 6.16432 18.8018 6.99989C18.8018 7.83546 18.5171 8.64598 18.0106 9.30136C17.5042 9.95675 16.8003 10.4232 16 10.6254" stroke="currentColor" stroke-width="2" stroke-linecap="round" stroke-linejoin="round"/>
</svg>
