<svg width="22" height="22" viewBox="0 0 22 22" fill="none" xmlns="http://www.w3.org/2000/svg">
<path d="M9.06584 10.1304H6.35422C5.70957 10.1304 5.18773 10.6522 5.18773 11.2968V16.5359H9.06584V10.1304Z" stroke="#08857C" stroke-width="1.5" stroke-linecap="round" stroke-linejoin="round"/>
<path d="M11.7788 5.47452H10.2234C9.57876 5.47452 9.05691 5.99639 9.05691 6.64105V16.5257H12.9351V6.64105C12.9351 5.99639 12.4234 5.47452 11.7788 5.47452Z" stroke="#08857C" stroke-width="1.5" stroke-linecap="round" stroke-linejoin="round"/>
<path d="M15.6537 11.8699H12.9421V16.5257H16.8202V13.0364C16.81 12.3917 16.2881 11.8699 15.6537 11.8699Z" stroke="#08857C" stroke-width="1.5" stroke-linecap="round" stroke-linejoin="round"/>
<path d="M7.93023 21.2326H14.0698C19.186 21.2326 21.2326 19.186 21.2326 14.0698V7.93023C21.2326 2.81395 19.186 0.767442 14.0698 0.767442H7.93023C2.81395 0.767442 0.767442 2.81395 0.767442 7.93023V14.0698C0.767442 19.186 2.81395 21.2326 7.93023 21.2326Z" stroke="#08857C" stroke-width="1.5" stroke-linecap="round" stroke-linejoin="round"/>
</svg>
