<svg width="22" height="22" viewBox="0 0 22 22" fill="none" xmlns="http://www.w3.org/2000/svg">
<path d="M16.6233 12.506C16.1948 12.9244 15.9498 13.5264 16.0111 14.1693C16.1029 15.2714 17.1132 16.0776 18.2153 16.0776H20.1541V17.2919C20.1541 19.4043 18.4296 21.1289 16.3172 21.1289H4.60229C2.48993 21.1289 0.765347 19.4043 0.765347 17.2919V10.4242C0.765347 8.31189 2.48993 6.58729 4.60229 6.58729H16.3172C18.4296 6.58729 20.1541 8.31189 20.1541 10.4242V11.8937H18.0928C17.5214 11.8937 17.0009 12.1182 16.6233 12.506Z" stroke="#D9D9D9" stroke-width="1.5" stroke-linecap="round" stroke-linejoin="round"/>
<path d="M0.765347 11.3426V6.67918C0.765347 5.46483 1.51029 4.38309 2.643 3.9545L10.7455 0.893109C12.0109 0.413491 13.3681 1.35235 13.3681 2.70956V6.58731" stroke="#D9D9D9" stroke-width="1.5" stroke-linecap="round" stroke-linejoin="round"/>
<path d="M21.2346 12.9347V15.0369C21.2346 15.5982 20.7856 16.0574 20.2142 16.0778H18.2141C17.112 16.0778 16.1017 15.2716 16.0099 14.1695C15.9486 13.5266 16.1935 12.9245 16.6221 12.5062C16.9997 12.1184 17.5201 11.8939 18.0916 11.8939H20.2142C20.7856 11.9143 21.2346 12.3735 21.2346 12.9347Z" stroke="#D9D9D9" stroke-width="1.5" stroke-linecap="round" stroke-linejoin="round"/>
<path d="M5.35743 10.9243H12.5007" stroke="#D9D9D9" stroke-width="1.5" stroke-linecap="round" stroke-linejoin="round"/>
</svg>
