<svg width="20" height="22" viewBox="0 0 20 22" fill="none" xmlns="http://www.w3.org/2000/svg">
<path d="M0.769231 7.94872V13.8667C0.769231 16.041 0.769231 16.041 2.82051 17.4256L8.46154 20.6872C9.31282 21.1795 10.6974 21.1795 11.5385 20.6872L17.1795 17.4256C19.2308 16.041 19.2308 16.041 19.2308 13.8769V7.94872C19.2308 5.78461 19.2308 5.78462 17.1795 4.4L11.5385 1.13846C10.6974 0.646154 9.31282 0.646154 8.46154 1.13846L2.82051 4.4C0.769231 5.78462 0.769231 5.78461 0.769231 7.94872Z" stroke="black" stroke-width="1.5" stroke-linecap="round" stroke-linejoin="round"/>
<path d="M13.0769 10.9128C13.0769 12.6122 11.6993 13.9898 10 13.9898C8.30066 13.9898 6.92308 12.6122 6.92308 10.9128C6.92308 9.2135 8.30066 7.83591 10 7.83591C11.6993 7.83591 13.0769 9.2135 13.0769 10.9128Z" stroke="black" stroke-width="1.5" stroke-linecap="round" stroke-linejoin="round"/>
</svg>
