<svg width="36" height="36" viewBox="0 0 36 36" fill="none" xmlns="http://www.w3.org/2000/svg">
<path d="M27.3325 20.4991C26.6212 21.1935 26.2147 22.1927 26.3164 23.2596C26.4688 25.0887 28.1454 26.4265 29.9744 26.4265H33.1922V28.4419C33.1922 31.9475 30.3301 34.8096 26.8244 34.8096H7.38252C3.87688 34.8096 1.01479 31.9475 1.01479 28.4419V17.0443C1.01479 13.5387 3.87688 10.6766 7.38252 10.6766H26.8244C30.3301 10.6766 33.1922 13.5387 33.1922 17.0443V19.4831H29.7712C28.8228 19.4831 27.9591 19.8556 27.3325 20.4991Z" stroke="white" stroke-width="2" stroke-linecap="round" stroke-linejoin="round"/>
<path d="M1.01479 18.5684V10.8289C1.01479 8.81362 2.25108 7.01839 4.13091 6.3071L17.5777 1.22647C19.6777 0.430501 21.9301 1.98861 21.9301 4.24103V10.6765" stroke="white" stroke-width="2" stroke-linecap="round" stroke-linejoin="round"/>
<path d="M34.9852 21.2105V24.6993C34.9852 25.6308 34.24 26.3928 33.2917 26.4267H29.9723C28.1433 26.4267 26.4667 25.0888 26.3143 23.2597C26.2126 22.1928 26.6191 21.1936 27.3304 20.4992C27.957 19.8557 28.8207 19.4832 29.7691 19.4832H33.2917C34.24 19.517 34.9852 20.2791 34.9852 21.2105Z" stroke="white" stroke-width="2" stroke-linecap="round" stroke-linejoin="round"/>
<path d="M8.63562 17.8738H20.4904" stroke="white" stroke-width="2" stroke-linecap="round" stroke-linejoin="round"/>
</svg>
