<svg width="21" height="21" viewBox="0 0 21 21" fill="none" xmlns="http://www.w3.org/2000/svg">
<path d="M7.57864 20.2379H13.4214C18.2904 20.2379 20.2379 18.2904 20.2379 13.4214V7.57864C20.2379 2.70968 18.2904 0.762098 13.4214 0.762098H7.57864C2.70968 0.762098 0.762098 2.70968 0.762098 7.57864V13.4214C0.762098 18.2904 2.70968 20.2379 7.57864 20.2379Z" stroke="white" stroke-width="1.5" stroke-linecap="round" stroke-linejoin="round"/>
<path d="M7.67606 10.4999V9.05866C7.67606 7.19871 8.99068 6.44889 10.5974 7.37399L11.8439 8.0946L13.0903 8.81521C14.6971 9.74031 14.6971 11.2594 13.0903 12.1845L11.8439 12.9051L10.5974 13.6257C8.99068 14.5508 7.67606 13.7913 7.67606 11.9411V10.4999Z" stroke="white" stroke-width="1.5" stroke-linecap="round" stroke-linejoin="round"/>
</svg>
