<svg width="27" height="22" viewBox="0 0 27 22" fill="none" xmlns="http://www.w3.org/2000/svg">
<path d="M13.7884 9.73193C13.6872 9.72182 13.5658 9.72182 13.4545 9.73193C11.0468 9.651 9.13485 7.67831 9.13485 5.25039C9.13485 2.77188 11.1379 0.758727 13.6265 0.758727C16.105 0.758727 18.1182 2.77188 18.1182 5.25039C18.1081 7.67831 16.1961 9.651 13.7884 9.73193Z" stroke="#D9D9D9" stroke-width="1.5" stroke-linecap="round" stroke-linejoin="round"/>
<path d="M21.1225 2.782C23.085 2.782 24.6632 4.37027 24.6632 6.32272C24.6632 8.23471 23.1457 9.79263 21.254 9.86345C21.173 9.85333 21.082 9.85333 20.9909 9.86345" stroke="#D9D9D9" stroke-width="1.5" stroke-linecap="round" stroke-linejoin="round"/>
<path d="M8.73036 13.4649C6.2822 15.1037 6.2822 17.7744 8.73036 19.4032C11.5124 21.2646 16.0748 21.2646 18.8568 19.4032C21.305 17.7643 21.305 15.0936 18.8568 13.4649C16.0849 11.6136 11.5225 11.6136 8.73036 13.4649Z" stroke="#D9D9D9" stroke-width="1.5" stroke-linecap="round" stroke-linejoin="round"/>
<path d="M23.075 18.9682C23.8034 18.8164 24.4913 18.523 25.0578 18.088C26.6359 16.9044 26.6359 14.952 25.0578 13.7684C24.5014 13.3435 23.8236 13.0602 23.1053 12.8984" stroke="#D9D9D9" stroke-width="1.5" stroke-linecap="round" stroke-linejoin="round"/>
<path d="M5.87717 2.782C3.9146 2.782 2.33644 4.37027 2.33644 6.32272C2.33644 8.23471 3.8539 9.79263 5.74566 9.86345C5.82659 9.85333 5.91764 9.85333 6.00868 9.86345" stroke="#D9D9D9" stroke-width="1.5" stroke-linecap="round" stroke-linejoin="round"/>
<path d="M3.92515 18.9682C3.19677 18.8164 2.50886 18.523 1.94234 18.088C0.364188 16.9044 0.364188 14.952 1.94234 13.7684C2.49874 13.3435 3.17654 13.0602 3.8948 12.8984" stroke="#D9D9D9" stroke-width="1.5" stroke-linecap="round" stroke-linejoin="round"/>
</svg>
