<svg width="80" height="80" viewBox="0 0 80 80" fill="none" xmlns="http://www.w3.org/2000/svg">
<rect width="80" height="80" rx="16" fill="#08857C"/>
<path d="M20 30C20 25.5817 23.5817 22 28 22H52C56.4183 22 60 25.5817 60 30V50C60 54.4183 56.4183 58 52 58H28C23.5817 58 20 54.4183 20 50V30Z" fill="white"/>
<path d="M30 35C30 32.7909 31.7909 31 34 31H46C48.2091 31 50 32.7909 50 35V45C50 47.2091 48.2091 49 46 49H34C31.7909 49 30 47.2091 30 45V35Z" fill="#08857C"/>
<circle cx="40" cy="40" r="6" fill="white"/>
<path d="M37 40L39 42L43 38" stroke="#08857C" stroke-width="2" stroke-linecap="round" stroke-linejoin="round"/>
</svg>
