<svg width="96" height="110" viewBox="0 0 96 110" fill="none" xmlns="http://www.w3.org/2000/svg">
<path d="M39.8941 4.4549L14.0684 14.1848C8.11656 16.4103 3.2516 23.4489 3.2516 29.763V68.2169C3.2516 74.324 7.28848 82.346 12.2052 86.0206L34.4598 102.634C41.7572 108.12 53.7644 108.12 61.0618 102.634L83.3164 86.0206C88.2331 82.346 92.27 74.324 92.27 68.2169V29.763C92.27 23.3972 87.4051 16.3585 81.4532 14.1331L55.6275 4.4549C51.2284 2.8505 44.1897 2.8505 39.8941 4.4549Z" fill="white" stroke="#BAD339" stroke-width="6.5" stroke-linecap="round" stroke-linejoin="round"/>
<path d="M32.4413 54.3465L40.7738 62.6791L63.0284 40.4245" fill="white"/>
<path d="M32.4413 54.3465L40.7738 62.6791L63.0284 40.4245" stroke="#BAD339" stroke-width="6.5" stroke-linecap="round" stroke-linejoin="round"/>
</svg>
