<svg width="22" height="22" viewBox="0 0 22 22" fill="none" xmlns="http://www.w3.org/2000/svg">
<path d="M16.6234 12.5064C16.1948 12.9247 15.9499 13.5268 16.0111 14.1697C16.1029 15.2718 17.1132 16.078 18.2153 16.078H20.1542V17.2923C20.1542 19.4047 18.4296 21.1293 16.3172 21.1293H4.6023C2.48993 21.1293 0.765348 19.4047 0.765348 17.2923V10.4246C0.765348 8.31227 2.48993 6.58768 4.6023 6.58768H16.3172C18.4296 6.58768 20.1542 8.31227 20.1542 10.4246V11.8941H18.0928C17.5214 11.8941 17.0009 12.1186 16.6234 12.5064Z" stroke="#08857C" stroke-width="1.5" stroke-linecap="round" stroke-linejoin="round"/>
<path d="M0.765348 11.3428V6.67938C0.765348 5.46502 1.51029 4.38329 2.643 3.95469L10.7455 0.893297C12.0109 0.413679 13.3681 1.35254 13.3681 2.70975V6.58751" stroke="#08857C" stroke-width="1.5" stroke-linecap="round" stroke-linejoin="round"/>
<path d="M21.2347 12.9351V15.0373C21.2347 15.5986 20.7856 16.0578 20.2142 16.0782H18.2141C17.112 16.0782 16.1017 15.272 16.0099 14.1699C15.9486 13.527 16.1936 12.9249 16.6222 12.5065C16.9997 12.1188 17.5202 11.8943 18.0916 11.8943H20.2142C20.7856 11.9147 21.2347 12.3739 21.2347 12.9351Z" stroke="#08857C" stroke-width="1.5" stroke-linecap="round" stroke-linejoin="round"/>
<path d="M5.35744 10.9247H12.5007" stroke="#08857C" stroke-width="1.5" stroke-linecap="round" stroke-linejoin="round"/>
</svg>
